<mxfile host="app.diagrams.net" modified="2023-04-04T09:18:19.414Z" agent="Mozilla/5.0 (X11; Linux x86_64) AppleWebKit/537.36 (KHTML, like Gecko) Chrome/111.0.0.0 Safari/537.36 Edg/111.0.1661.62" etag="9UbaXEeKuLSBXOd58MqF" version="21.1.3" type="device">
  <diagram id="C5RBs43oDa-KdzZeNtuy" name="Page-1">
    <mxGraphModel dx="2389" dy="2040" grid="1" gridSize="10" guides="1" tooltips="1" connect="1" arrows="1" fold="1" page="1" pageScale="1" pageWidth="827" pageHeight="1169" math="0" shadow="0">
      <root>
        <mxCell id="WIyWlLk6GJQsqaUBKTNV-0" />
        <mxCell id="WIyWlLk6GJQsqaUBKTNV-1" parent="WIyWlLk6GJQsqaUBKTNV-0" />
        <mxCell id="8-GeU_bBelWQcZoW2wFP-0" value="HallManagementSystem" style="swimlane;fontStyle=1;align=center;verticalAlign=top;childLayout=stackLayout;horizontal=1;startSize=26;horizontalStack=0;resizeParent=1;resizeParentMax=0;resizeLast=0;collapsible=1;marginBottom=0;" parent="WIyWlLk6GJQsqaUBKTNV-1" vertex="1">
          <mxGeometry x="225" y="-282" width="225" height="130" as="geometry" />
        </mxCell>
        <mxCell id="8-GeU_bBelWQcZoW2wFP-1" value="- studentList: Student [*]&#xa;- hallList: Hall [*]&#xa;- complaintRegister: ComplaintRegister" style="text;strokeColor=none;fillColor=none;align=left;verticalAlign=top;spacingLeft=4;spacingRight=4;overflow=hidden;rotatable=0;points=[[0,0.5],[1,0.5]];portConstraint=eastwest;" parent="8-GeU_bBelWQcZoW2wFP-0" vertex="1">
          <mxGeometry y="26" width="225" height="54" as="geometry" />
        </mxCell>
        <mxCell id="8-GeU_bBelWQcZoW2wFP-2" value="" style="line;strokeWidth=1;fillColor=none;align=left;verticalAlign=middle;spacingTop=-1;spacingLeft=3;spacingRight=3;rotatable=0;labelPosition=right;points=[];portConstraint=eastwest;strokeColor=inherit;" parent="8-GeU_bBelWQcZoW2wFP-0" vertex="1">
          <mxGeometry y="80" width="225" height="8" as="geometry" />
        </mxCell>
        <mxCell id="8-GeU_bBelWQcZoW2wFP-3" value="+ createStudent(): Student&#xa;+ printMessDues()" style="text;strokeColor=none;fillColor=none;align=left;verticalAlign=top;spacingLeft=4;spacingRight=4;overflow=hidden;rotatable=0;points=[[0,0.5],[1,0.5]];portConstraint=eastwest;" parent="8-GeU_bBelWQcZoW2wFP-0" vertex="1">
          <mxGeometry y="88" width="225" height="42" as="geometry" />
        </mxCell>
        <mxCell id="8-GeU_bBelWQcZoW2wFP-12" value="Student" style="swimlane;fontStyle=1;align=center;verticalAlign=top;childLayout=stackLayout;horizontal=1;startSize=26;horizontalStack=0;resizeParent=1;resizeParentMax=0;resizeLast=0;collapsible=1;marginBottom=0;" parent="WIyWlLk6GJQsqaUBKTNV-1" vertex="1">
          <mxGeometry x="-10" y="-20" width="170" height="210" as="geometry" />
        </mxCell>
        <mxCell id="8-GeU_bBelWQcZoW2wFP-13" value="- hall: Hall&#xa;- roomNumber: String&#xa;- messAccount: MessAccount&#xa;- feesAccount: Fees&#xa;- rollNumber: String&#xa;- room: BoarderRoom" style="text;strokeColor=none;fillColor=none;align=left;verticalAlign=top;spacingLeft=4;spacingRight=4;overflow=hidden;rotatable=0;points=[[0,0.5],[1,0.5]];portConstraint=eastwest;" parent="8-GeU_bBelWQcZoW2wFP-12" vertex="1">
          <mxGeometry y="26" width="170" height="74" as="geometry" />
        </mxCell>
        <mxCell id="8-GeU_bBelWQcZoW2wFP-14" value="" style="line;strokeWidth=1;fillColor=none;align=left;verticalAlign=middle;spacingTop=-1;spacingLeft=3;spacingRight=3;rotatable=0;labelPosition=right;points=[];portConstraint=eastwest;strokeColor=inherit;" parent="8-GeU_bBelWQcZoW2wFP-12" vertex="1">
          <mxGeometry y="100" width="170" height="8" as="geometry" />
        </mxCell>
        <mxCell id="8-GeU_bBelWQcZoW2wFP-15" value="+ getHall(): Hall&#xa;+ getRoomNumber(): Hall&#xa;+ getMessDue(): float&#xa;+ getRollNumber: String&#xa;+ getRoomRent(): float&#xa;+ getAmenityDues(): float" style="text;strokeColor=none;fillColor=none;align=left;verticalAlign=top;spacingLeft=4;spacingRight=4;overflow=hidden;rotatable=0;points=[[0,0.5],[1,0.5]];portConstraint=eastwest;" parent="8-GeU_bBelWQcZoW2wFP-12" vertex="1">
          <mxGeometry y="108" width="170" height="102" as="geometry" />
        </mxCell>
        <mxCell id="NSiUn7Op9CE1pnOAJ0Dl-1" value="" style="edgeStyle=orthogonalEdgeStyle;rounded=0;orthogonalLoop=1;jettySize=auto;html=1;" parent="WIyWlLk6GJQsqaUBKTNV-1" source="8-GeU_bBelWQcZoW2wFP-22" target="8-GeU_bBelWQcZoW2wFP-41" edge="1">
          <mxGeometry relative="1" as="geometry" />
        </mxCell>
        <mxCell id="8-GeU_bBelWQcZoW2wFP-22" value="MessAccount" style="swimlane;fontStyle=1;align=center;verticalAlign=top;childLayout=stackLayout;horizontal=1;startSize=26;horizontalStack=0;resizeParent=1;resizeParentMax=0;resizeLast=0;collapsible=1;marginBottom=0;" parent="WIyWlLk6GJQsqaUBKTNV-1" vertex="1">
          <mxGeometry x="65" y="250" width="160" height="84" as="geometry" />
        </mxCell>
        <mxCell id="8-GeU_bBelWQcZoW2wFP-23" value="- due: float" style="text;strokeColor=none;fillColor=none;align=left;verticalAlign=top;spacingLeft=4;spacingRight=4;overflow=hidden;rotatable=0;points=[[0,0.5],[1,0.5]];portConstraint=eastwest;" parent="8-GeU_bBelWQcZoW2wFP-22" vertex="1">
          <mxGeometry y="26" width="160" height="24" as="geometry" />
        </mxCell>
        <mxCell id="8-GeU_bBelWQcZoW2wFP-24" value="" style="line;strokeWidth=1;fillColor=none;align=left;verticalAlign=middle;spacingTop=-1;spacingLeft=3;spacingRight=3;rotatable=0;labelPosition=right;points=[];portConstraint=eastwest;strokeColor=inherit;" parent="8-GeU_bBelWQcZoW2wFP-22" vertex="1">
          <mxGeometry y="50" width="160" height="8" as="geometry" />
        </mxCell>
        <mxCell id="8-GeU_bBelWQcZoW2wFP-25" value="+ getDue(): float" style="text;strokeColor=none;fillColor=none;align=left;verticalAlign=top;spacingLeft=4;spacingRight=4;overflow=hidden;rotatable=0;points=[[0,0.5],[1,0.5]];portConstraint=eastwest;" parent="8-GeU_bBelWQcZoW2wFP-22" vertex="1">
          <mxGeometry y="58" width="160" height="26" as="geometry" />
        </mxCell>
        <mxCell id="8-GeU_bBelWQcZoW2wFP-27" value="MessManager" style="swimlane;fontStyle=1;align=center;verticalAlign=top;childLayout=stackLayout;horizontal=1;startSize=26;horizontalStack=0;resizeParent=1;resizeParentMax=0;resizeLast=0;collapsible=1;marginBottom=0;" parent="WIyWlLk6GJQsqaUBKTNV-1" vertex="1">
          <mxGeometry x="370" y="240" width="190" height="104" as="geometry" />
        </mxCell>
        <mxCell id="8-GeU_bBelWQcZoW2wFP-28" value="- messAccounts: MessAccount [*]&#xa;- Hall: Hall" style="text;strokeColor=none;fillColor=none;align=left;verticalAlign=top;spacingLeft=4;spacingRight=4;overflow=hidden;rotatable=0;points=[[0,0.5],[1,0.5]];portConstraint=eastwest;" parent="8-GeU_bBelWQcZoW2wFP-27" vertex="1">
          <mxGeometry y="26" width="190" height="44" as="geometry" />
        </mxCell>
        <mxCell id="8-GeU_bBelWQcZoW2wFP-29" value="" style="line;strokeWidth=1;fillColor=none;align=left;verticalAlign=middle;spacingTop=-1;spacingLeft=3;spacingRight=3;rotatable=0;labelPosition=right;points=[];portConstraint=eastwest;strokeColor=inherit;" parent="8-GeU_bBelWQcZoW2wFP-27" vertex="1">
          <mxGeometry y="70" width="190" height="8" as="geometry" />
        </mxCell>
        <mxCell id="8-GeU_bBelWQcZoW2wFP-30" value="+ setDue(float):" style="text;strokeColor=none;fillColor=none;align=left;verticalAlign=top;spacingLeft=4;spacingRight=4;overflow=hidden;rotatable=0;points=[[0,0.5],[1,0.5]];portConstraint=eastwest;" parent="8-GeU_bBelWQcZoW2wFP-27" vertex="1">
          <mxGeometry y="78" width="190" height="26" as="geometry" />
        </mxCell>
        <mxCell id="8-GeU_bBelWQcZoW2wFP-32" value="Extends" style="endArrow=block;endSize=16;endFill=0;html=1;rounded=0;exitX=0.992;exitY=0.02;exitDx=0;exitDy=0;exitPerimeter=0;entryX=-0.001;entryY=0.086;entryDx=0;entryDy=0;entryPerimeter=0;" parent="WIyWlLk6GJQsqaUBKTNV-1" source="8-GeU_bBelWQcZoW2wFP-15" target="8-GeU_bBelWQcZoW2wFP-7" edge="1">
          <mxGeometry width="160" relative="1" as="geometry">
            <mxPoint x="230" y="80" as="sourcePoint" />
            <mxPoint x="350" y="80" as="targetPoint" />
          </mxGeometry>
        </mxCell>
        <mxCell id="8-GeU_bBelWQcZoW2wFP-34" value="" style="endArrow=diamondThin;endFill=1;endSize=24;html=1;rounded=0;" parent="WIyWlLk6GJQsqaUBKTNV-1" source="8-GeU_bBelWQcZoW2wFP-22" target="8-GeU_bBelWQcZoW2wFP-15" edge="1">
          <mxGeometry width="160" relative="1" as="geometry">
            <mxPoint x="137" y="250" as="sourcePoint" />
            <mxPoint x="140" y="150" as="targetPoint" />
          </mxGeometry>
        </mxCell>
        <mxCell id="8-GeU_bBelWQcZoW2wFP-37" value="Extends" style="endArrow=block;endSize=16;endFill=0;html=1;rounded=0;exitX=0.667;exitY=1.051;exitDx=0;exitDy=0;exitPerimeter=0;entryX=0.123;entryY=1.103;entryDx=0;entryDy=0;entryPerimeter=0;" parent="WIyWlLk6GJQsqaUBKTNV-1" source="8-GeU_bBelWQcZoW2wFP-30" target="8-GeU_bBelWQcZoW2wFP-147" edge="1">
          <mxGeometry width="160" relative="1" as="geometry">
            <mxPoint x="240" y="90" as="sourcePoint" />
            <mxPoint x="-480" y="490" as="targetPoint" />
            <Array as="points">
              <mxPoint x="497" y="500" />
              <mxPoint x="-420" y="500" />
              <mxPoint x="-420" y="220" />
              <mxPoint x="-361" y="220" />
            </Array>
          </mxGeometry>
        </mxCell>
        <mxCell id="8-GeU_bBelWQcZoW2wFP-41" value="1" style="text;html=1;align=center;verticalAlign=middle;resizable=0;points=[];autosize=1;strokeColor=none;fillColor=none;" parent="WIyWlLk6GJQsqaUBKTNV-1" vertex="1">
          <mxGeometry x="340" y="240" width="30" height="30" as="geometry" />
        </mxCell>
        <mxCell id="8-GeU_bBelWQcZoW2wFP-42" value="Hall" style="swimlane;fontStyle=1;align=center;verticalAlign=top;childLayout=stackLayout;horizontal=1;startSize=26;horizontalStack=0;resizeParent=1;resizeParentMax=0;resizeLast=0;collapsible=1;marginBottom=0;" parent="WIyWlLk6GJQsqaUBKTNV-1" vertex="1">
          <mxGeometry x="-219" y="-254" width="239" height="210" as="geometry" />
        </mxCell>
        <mxCell id="8-GeU_bBelWQcZoW2wFP-43" value="- name: String&#xa;- strudentsList: Student [*]&#xa;- messManager: MessManager&#xa;- boarderRooms: BoarderRoom [*]&#xa;- amenityRooms: AmenityRoom [*]&#xa;- warden: Warden&#xa;- expenditure: HallBudget&#xa;- complaintsRegister: ComplaintsRegister&#xa;- employees: HallEmployee [*]" style="text;strokeColor=none;fillColor=none;align=left;verticalAlign=top;spacingLeft=4;spacingRight=4;overflow=hidden;rotatable=0;points=[[0,0.5],[1,0.5]];portConstraint=eastwest;" parent="8-GeU_bBelWQcZoW2wFP-42" vertex="1">
          <mxGeometry y="26" width="239" height="134" as="geometry" />
        </mxCell>
        <mxCell id="8-GeU_bBelWQcZoW2wFP-44" value="" style="line;strokeWidth=1;fillColor=none;align=left;verticalAlign=middle;spacingTop=-1;spacingLeft=3;spacingRight=3;rotatable=0;labelPosition=right;points=[];portConstraint=eastwest;strokeColor=inherit;" parent="8-GeU_bBelWQcZoW2wFP-42" vertex="1">
          <mxGeometry y="160" width="239" height="8" as="geometry" />
        </mxCell>
        <mxCell id="8-GeU_bBelWQcZoW2wFP-45" value="+ getMessDues(): int&#xa;+ getAmenityDues(); int" style="text;strokeColor=none;fillColor=none;align=left;verticalAlign=top;spacingLeft=4;spacingRight=4;overflow=hidden;rotatable=0;points=[[0,0.5],[1,0.5]];portConstraint=eastwest;" parent="8-GeU_bBelWQcZoW2wFP-42" vertex="1">
          <mxGeometry y="168" width="239" height="42" as="geometry" />
        </mxCell>
        <mxCell id="8-GeU_bBelWQcZoW2wFP-48" value="" style="endArrow=diamondThin;endFill=0;endSize=24;html=1;rounded=0;exitX=0;exitY=0.5;exitDx=0;exitDy=0;" parent="WIyWlLk6GJQsqaUBKTNV-1" source="8-GeU_bBelWQcZoW2wFP-13" target="8-GeU_bBelWQcZoW2wFP-45" edge="1">
          <mxGeometry width="160" relative="1" as="geometry">
            <mxPoint x="-70" y="130" as="sourcePoint" />
            <mxPoint x="-60" y="-90" as="targetPoint" />
            <Array as="points">
              <mxPoint x="-100" y="43" />
            </Array>
          </mxGeometry>
        </mxCell>
        <mxCell id="8-GeU_bBelWQcZoW2wFP-49" value="" style="endArrow=diamondThin;endFill=1;endSize=24;html=1;rounded=0;entryX=0.252;entryY=1.052;entryDx=0;entryDy=0;entryPerimeter=0;" parent="WIyWlLk6GJQsqaUBKTNV-1" source="8-GeU_bBelWQcZoW2wFP-30" target="8-GeU_bBelWQcZoW2wFP-45" edge="1">
          <mxGeometry width="160" relative="1" as="geometry">
            <mxPoint x="440" y="410" as="sourcePoint" />
            <mxPoint x="-159" y="-40" as="targetPoint" />
            <Array as="points">
              <mxPoint x="465" y="420" />
              <mxPoint x="-159" y="420" />
            </Array>
          </mxGeometry>
        </mxCell>
        <mxCell id="8-GeU_bBelWQcZoW2wFP-50" value="Room" style="swimlane;fontStyle=3;align=center;verticalAlign=top;childLayout=stackLayout;horizontal=1;startSize=26;horizontalStack=0;resizeParent=1;resizeParentMax=0;resizeLast=0;collapsible=1;marginBottom=0;" parent="WIyWlLk6GJQsqaUBKTNV-1" vertex="1">
          <mxGeometry x="240" y="-535" width="160" height="94" as="geometry" />
        </mxCell>
        <mxCell id="8-GeU_bBelWQcZoW2wFP-51" value="- rent: int&#xa;- roomNumber: string" style="text;strokeColor=none;fillColor=none;align=left;verticalAlign=top;spacingLeft=4;spacingRight=4;overflow=hidden;rotatable=0;points=[[0,0.5],[1,0.5]];portConstraint=eastwest;" parent="8-GeU_bBelWQcZoW2wFP-50" vertex="1">
          <mxGeometry y="26" width="160" height="34" as="geometry" />
        </mxCell>
        <mxCell id="8-GeU_bBelWQcZoW2wFP-52" value="" style="line;strokeWidth=1;fillColor=none;align=left;verticalAlign=middle;spacingTop=-1;spacingLeft=3;spacingRight=3;rotatable=0;labelPosition=right;points=[];portConstraint=eastwest;strokeColor=inherit;" parent="8-GeU_bBelWQcZoW2wFP-50" vertex="1">
          <mxGeometry y="60" width="160" height="8" as="geometry" />
        </mxCell>
        <mxCell id="8-GeU_bBelWQcZoW2wFP-53" value="+ getRent(): float" style="text;strokeColor=none;fillColor=none;align=left;verticalAlign=top;spacingLeft=4;spacingRight=4;overflow=hidden;rotatable=0;points=[[0,0.5],[1,0.5]];portConstraint=eastwest;" parent="8-GeU_bBelWQcZoW2wFP-50" vertex="1">
          <mxGeometry y="68" width="160" height="26" as="geometry" />
        </mxCell>
        <mxCell id="8-GeU_bBelWQcZoW2wFP-54" value="BoarderRoom" style="swimlane;fontStyle=1;align=center;verticalAlign=top;childLayout=stackLayout;horizontal=1;startSize=26;horizontalStack=0;resizeParent=1;resizeParentMax=0;resizeLast=0;collapsible=1;marginBottom=0;" parent="WIyWlLk6GJQsqaUBKTNV-1" vertex="1">
          <mxGeometry x="-10" y="-410" width="170" height="124" as="geometry" />
        </mxCell>
        <mxCell id="8-GeU_bBelWQcZoW2wFP-55" value="- occupancyNumber: int&#xa;- boarders: Student [*]&#xa;- newstatus: boolean&#xa;- currentnoStudents: int&#xa;" style="text;strokeColor=none;fillColor=none;align=left;verticalAlign=top;spacingLeft=4;spacingRight=4;overflow=hidden;rotatable=0;points=[[0,0.5],[1,0.5]];portConstraint=eastwest;" parent="8-GeU_bBelWQcZoW2wFP-54" vertex="1">
          <mxGeometry y="26" width="170" height="64" as="geometry" />
        </mxCell>
        <mxCell id="8-GeU_bBelWQcZoW2wFP-56" value="" style="line;strokeWidth=1;fillColor=none;align=left;verticalAlign=middle;spacingTop=-1;spacingLeft=3;spacingRight=3;rotatable=0;labelPosition=right;points=[];portConstraint=eastwest;strokeColor=inherit;" parent="8-GeU_bBelWQcZoW2wFP-54" vertex="1">
          <mxGeometry y="90" width="170" height="8" as="geometry" />
        </mxCell>
        <mxCell id="8-GeU_bBelWQcZoW2wFP-57" value="+ getOccupancyNumber(): int" style="text;strokeColor=none;fillColor=none;align=left;verticalAlign=top;spacingLeft=4;spacingRight=4;overflow=hidden;rotatable=0;points=[[0,0.5],[1,0.5]];portConstraint=eastwest;" parent="8-GeU_bBelWQcZoW2wFP-54" vertex="1">
          <mxGeometry y="98" width="170" height="26" as="geometry" />
        </mxCell>
        <mxCell id="8-GeU_bBelWQcZoW2wFP-58" value="Extends" style="endArrow=block;endSize=16;endFill=0;html=1;rounded=0;entryX=-0.004;entryY=0.821;entryDx=0;entryDy=0;entryPerimeter=0;" parent="WIyWlLk6GJQsqaUBKTNV-1" source="8-GeU_bBelWQcZoW2wFP-54" target="8-GeU_bBelWQcZoW2wFP-53" edge="1">
          <mxGeometry width="160" relative="1" as="geometry">
            <mxPoint x="20" y="-517" as="sourcePoint" />
            <mxPoint x="230" y="-517.5" as="targetPoint" />
            <Array as="points">
              <mxPoint x="75" y="-446" />
            </Array>
          </mxGeometry>
        </mxCell>
        <mxCell id="8-GeU_bBelWQcZoW2wFP-59" value="" style="endArrow=diamondThin;endFill=1;endSize=24;html=1;rounded=0;entryX=1;entryY=0;entryDx=0;entryDy=0;exitX=0.168;exitY=0.993;exitDx=0;exitDy=0;exitPerimeter=0;" parent="WIyWlLk6GJQsqaUBKTNV-1" source="8-GeU_bBelWQcZoW2wFP-57" target="8-GeU_bBelWQcZoW2wFP-42" edge="1">
          <mxGeometry width="160" relative="1" as="geometry">
            <mxPoint x="20" y="-310" as="sourcePoint" />
            <mxPoint x="200" y="-160" as="targetPoint" />
          </mxGeometry>
        </mxCell>
        <mxCell id="8-GeU_bBelWQcZoW2wFP-60" value="AmenityRoom" style="swimlane;fontStyle=1;align=center;verticalAlign=top;childLayout=stackLayout;horizontal=1;startSize=26;horizontalStack=0;resizeParent=1;resizeParentMax=0;resizeLast=0;collapsible=1;marginBottom=0;" parent="WIyWlLk6GJQsqaUBKTNV-1" vertex="1">
          <mxGeometry x="-179.5" y="-530" width="160" height="84" as="geometry" />
        </mxCell>
        <mxCell id="8-GeU_bBelWQcZoW2wFP-61" value="- amenityName: String" style="text;strokeColor=none;fillColor=none;align=left;verticalAlign=top;spacingLeft=4;spacingRight=4;overflow=hidden;rotatable=0;points=[[0,0.5],[1,0.5]];portConstraint=eastwest;" parent="8-GeU_bBelWQcZoW2wFP-60" vertex="1">
          <mxGeometry y="26" width="160" height="24" as="geometry" />
        </mxCell>
        <mxCell id="8-GeU_bBelWQcZoW2wFP-62" value="" style="line;strokeWidth=1;fillColor=none;align=left;verticalAlign=middle;spacingTop=-1;spacingLeft=3;spacingRight=3;rotatable=0;labelPosition=right;points=[];portConstraint=eastwest;strokeColor=inherit;" parent="8-GeU_bBelWQcZoW2wFP-60" vertex="1">
          <mxGeometry y="50" width="160" height="8" as="geometry" />
        </mxCell>
        <mxCell id="8-GeU_bBelWQcZoW2wFP-63" value="+ getAmenityName(): String" style="text;strokeColor=none;fillColor=none;align=left;verticalAlign=top;spacingLeft=4;spacingRight=4;overflow=hidden;rotatable=0;points=[[0,0.5],[1,0.5]];portConstraint=eastwest;" parent="8-GeU_bBelWQcZoW2wFP-60" vertex="1">
          <mxGeometry y="58" width="160" height="26" as="geometry" />
        </mxCell>
        <mxCell id="8-GeU_bBelWQcZoW2wFP-64" value="Extends" style="endArrow=block;endSize=16;endFill=0;html=1;rounded=0;" parent="WIyWlLk6GJQsqaUBKTNV-1" source="8-GeU_bBelWQcZoW2wFP-60" target="8-GeU_bBelWQcZoW2wFP-50" edge="1">
          <mxGeometry width="160" relative="1" as="geometry">
            <mxPoint x="40" y="-400" as="sourcePoint" />
            <mxPoint x="200" y="-400" as="targetPoint" />
          </mxGeometry>
        </mxCell>
        <mxCell id="8-GeU_bBelWQcZoW2wFP-65" value="" style="endArrow=diamondThin;endFill=1;endSize=24;html=1;rounded=0;" parent="WIyWlLk6GJQsqaUBKTNV-1" source="8-GeU_bBelWQcZoW2wFP-60" target="8-GeU_bBelWQcZoW2wFP-42" edge="1">
          <mxGeometry width="160" relative="1" as="geometry">
            <mxPoint x="40" y="-400" as="sourcePoint" />
            <mxPoint x="200" y="-400" as="targetPoint" />
          </mxGeometry>
        </mxCell>
        <mxCell id="8-GeU_bBelWQcZoW2wFP-66" value="" style="endArrow=diamondThin;endFill=0;endSize=24;html=1;rounded=0;entryX=-0.004;entryY=0.049;entryDx=0;entryDy=0;entryPerimeter=0;" parent="WIyWlLk6GJQsqaUBKTNV-1" target="8-GeU_bBelWQcZoW2wFP-3" edge="1">
          <mxGeometry width="160" relative="1" as="geometry">
            <mxPoint x="20" y="-190" as="sourcePoint" />
            <mxPoint x="220" y="-200" as="targetPoint" />
          </mxGeometry>
        </mxCell>
        <mxCell id="8-GeU_bBelWQcZoW2wFP-67" value="" style="endArrow=diamondThin;endFill=0;endSize=24;html=1;rounded=0;entryX=0.072;entryY=1.025;entryDx=0;entryDy=0;entryPerimeter=0;" parent="WIyWlLk6GJQsqaUBKTNV-1" source="8-GeU_bBelWQcZoW2wFP-12" target="8-GeU_bBelWQcZoW2wFP-3" edge="1">
          <mxGeometry width="160" relative="1" as="geometry">
            <mxPoint x="10" y="-80" as="sourcePoint" />
            <mxPoint x="230" y="-150" as="targetPoint" />
          </mxGeometry>
        </mxCell>
        <mxCell id="8-GeU_bBelWQcZoW2wFP-68" value="" style="endArrow=diamondThin;endFill=0;endSize=24;html=1;rounded=0;" parent="WIyWlLk6GJQsqaUBKTNV-1" source="8-GeU_bBelWQcZoW2wFP-22" target="8-GeU_bBelWQcZoW2wFP-27" edge="1">
          <mxGeometry width="160" relative="1" as="geometry">
            <mxPoint x="230" y="110" as="sourcePoint" />
            <mxPoint x="70" y="110" as="targetPoint" />
          </mxGeometry>
        </mxCell>
        <mxCell id="8-GeU_bBelWQcZoW2wFP-73" value="" style="endArrow=diamondThin;endFill=0;endSize=24;html=1;rounded=0;entryX=0.396;entryY=1;entryDx=0;entryDy=0;entryPerimeter=0;" parent="WIyWlLk6GJQsqaUBKTNV-1" target="8-GeU_bBelWQcZoW2wFP-57" edge="1">
          <mxGeometry width="160" relative="1" as="geometry">
            <mxPoint x="60" y="-30" as="sourcePoint" />
            <mxPoint x="50" y="-300" as="targetPoint" />
          </mxGeometry>
        </mxCell>
        <mxCell id="8-GeU_bBelWQcZoW2wFP-75" value="Fees" style="swimlane;fontStyle=1;align=center;verticalAlign=top;childLayout=stackLayout;horizontal=1;startSize=26;horizontalStack=0;resizeParent=1;resizeParentMax=0;resizeLast=0;collapsible=1;marginBottom=0;" parent="WIyWlLk6GJQsqaUBKTNV-1" vertex="1">
          <mxGeometry x="-110" y="250" width="160" height="114" as="geometry" />
        </mxCell>
        <mxCell id="8-GeU_bBelWQcZoW2wFP-76" value="- student: Student&#xa;- amenityFees: float&#xa;- roomFees: float" style="text;strokeColor=none;fillColor=none;align=left;verticalAlign=top;spacingLeft=4;spacingRight=4;overflow=hidden;rotatable=0;points=[[0,0.5],[1,0.5]];portConstraint=eastwest;" parent="8-GeU_bBelWQcZoW2wFP-75" vertex="1">
          <mxGeometry y="26" width="160" height="54" as="geometry" />
        </mxCell>
        <mxCell id="8-GeU_bBelWQcZoW2wFP-77" value="" style="line;strokeWidth=1;fillColor=none;align=left;verticalAlign=middle;spacingTop=-1;spacingLeft=3;spacingRight=3;rotatable=0;labelPosition=right;points=[];portConstraint=eastwest;strokeColor=inherit;" parent="8-GeU_bBelWQcZoW2wFP-75" vertex="1">
          <mxGeometry y="80" width="160" height="8" as="geometry" />
        </mxCell>
        <mxCell id="8-GeU_bBelWQcZoW2wFP-78" value="+ getFees(): float" style="text;strokeColor=none;fillColor=none;align=left;verticalAlign=top;spacingLeft=4;spacingRight=4;overflow=hidden;rotatable=0;points=[[0,0.5],[1,0.5]];portConstraint=eastwest;" parent="8-GeU_bBelWQcZoW2wFP-75" vertex="1">
          <mxGeometry y="88" width="160" height="26" as="geometry" />
        </mxCell>
        <mxCell id="8-GeU_bBelWQcZoW2wFP-79" value="" style="endArrow=diamondThin;endFill=1;endSize=24;html=1;rounded=0;" parent="WIyWlLk6GJQsqaUBKTNV-1" source="8-GeU_bBelWQcZoW2wFP-75" target="8-GeU_bBelWQcZoW2wFP-12" edge="1">
          <mxGeometry width="160" relative="1" as="geometry">
            <mxPoint y="180" as="sourcePoint" />
            <mxPoint x="160" y="180" as="targetPoint" />
          </mxGeometry>
        </mxCell>
        <mxCell id="8-GeU_bBelWQcZoW2wFP-81" value="Complaint" style="swimlane;fontStyle=1;align=center;verticalAlign=top;childLayout=stackLayout;horizontal=1;startSize=26;horizontalStack=0;resizeParent=1;resizeParentMax=0;resizeLast=0;collapsible=1;marginBottom=0;" parent="WIyWlLk6GJQsqaUBKTNV-1" vertex="1">
          <mxGeometry x="520" y="-248" width="160" height="166" as="geometry" />
        </mxCell>
        <mxCell id="8-GeU_bBelWQcZoW2wFP-82" value="- complainer: Student&#xa;- details: String&#xa;- date: String&#xa;- nameagainst: String&#xa;- status: Boolean&#xa;- ATR: ATR" style="text;strokeColor=none;fillColor=none;align=left;verticalAlign=top;spacingLeft=4;spacingRight=4;overflow=hidden;rotatable=0;points=[[0,0.5],[1,0.5]];portConstraint=eastwest;" parent="8-GeU_bBelWQcZoW2wFP-81" vertex="1">
          <mxGeometry y="26" width="160" height="90" as="geometry" />
        </mxCell>
        <mxCell id="8-GeU_bBelWQcZoW2wFP-83" value="" style="line;strokeWidth=1;fillColor=none;align=left;verticalAlign=middle;spacingTop=-1;spacingLeft=3;spacingRight=3;rotatable=0;labelPosition=right;points=[];portConstraint=eastwest;strokeColor=inherit;" parent="8-GeU_bBelWQcZoW2wFP-81" vertex="1">
          <mxGeometry y="116" width="160" height="8" as="geometry" />
        </mxCell>
        <mxCell id="8-GeU_bBelWQcZoW2wFP-84" value="+ method(type): type&#xa;+ createATR()" style="text;strokeColor=none;fillColor=none;align=left;verticalAlign=top;spacingLeft=4;spacingRight=4;overflow=hidden;rotatable=0;points=[[0,0.5],[1,0.5]];portConstraint=eastwest;" parent="8-GeU_bBelWQcZoW2wFP-81" vertex="1">
          <mxGeometry y="124" width="160" height="42" as="geometry" />
        </mxCell>
        <mxCell id="8-GeU_bBelWQcZoW2wFP-85" value="ComplaintRegister" style="swimlane;fontStyle=1;align=center;verticalAlign=top;childLayout=stackLayout;horizontal=1;startSize=26;horizontalStack=0;resizeParent=1;resizeParentMax=0;resizeLast=0;collapsible=1;marginBottom=0;" parent="WIyWlLk6GJQsqaUBKTNV-1" vertex="1">
          <mxGeometry x="520" y="-382" width="180" height="100" as="geometry" />
        </mxCell>
        <mxCell id="8-GeU_bBelWQcZoW2wFP-86" value="- complaints: Complaint [*]" style="text;strokeColor=none;fillColor=none;align=left;verticalAlign=top;spacingLeft=4;spacingRight=4;overflow=hidden;rotatable=0;points=[[0,0.5],[1,0.5]];portConstraint=eastwest;" parent="8-GeU_bBelWQcZoW2wFP-85" vertex="1">
          <mxGeometry y="26" width="180" height="26" as="geometry" />
        </mxCell>
        <mxCell id="8-GeU_bBelWQcZoW2wFP-87" value="" style="line;strokeWidth=1;fillColor=none;align=left;verticalAlign=middle;spacingTop=-1;spacingLeft=3;spacingRight=3;rotatable=0;labelPosition=right;points=[];portConstraint=eastwest;strokeColor=inherit;" parent="8-GeU_bBelWQcZoW2wFP-85" vertex="1">
          <mxGeometry y="52" width="180" height="8" as="geometry" />
        </mxCell>
        <mxCell id="8-GeU_bBelWQcZoW2wFP-88" value="+ addComplaint(Complaint):&#xa;+ removeComplaint()" style="text;strokeColor=none;fillColor=none;align=left;verticalAlign=top;spacingLeft=4;spacingRight=4;overflow=hidden;rotatable=0;points=[[0,0.5],[1,0.5]];portConstraint=eastwest;" parent="8-GeU_bBelWQcZoW2wFP-85" vertex="1">
          <mxGeometry y="60" width="180" height="40" as="geometry" />
        </mxCell>
        <mxCell id="8-GeU_bBelWQcZoW2wFP-89" value="" style="endArrow=block;endFill=1;html=1;edgeStyle=orthogonalEdgeStyle;align=left;verticalAlign=top;rounded=0;startSize=24;endSize=14;" parent="WIyWlLk6GJQsqaUBKTNV-1" source="8-GeU_bBelWQcZoW2wFP-81" target="8-GeU_bBelWQcZoW2wFP-12" edge="1">
          <mxGeometry x="-1" relative="1" as="geometry">
            <mxPoint x="220" y="-140" as="sourcePoint" />
            <mxPoint x="380" y="-140" as="targetPoint" />
            <Array as="points">
              <mxPoint x="75" y="-110" />
            </Array>
          </mxGeometry>
        </mxCell>
        <mxCell id="8-GeU_bBelWQcZoW2wFP-91" value="" style="endArrow=diamondThin;endFill=1;endSize=24;html=1;rounded=0;" parent="WIyWlLk6GJQsqaUBKTNV-1" source="8-GeU_bBelWQcZoW2wFP-81" edge="1">
          <mxGeometry width="160" relative="1" as="geometry">
            <mxPoint x="250" y="-90" as="sourcePoint" />
            <mxPoint x="600" y="-280" as="targetPoint" />
          </mxGeometry>
        </mxCell>
        <mxCell id="8-GeU_bBelWQcZoW2wFP-92" value="Warden" style="swimlane;fontStyle=1;align=center;verticalAlign=top;childLayout=stackLayout;horizontal=1;startSize=26;horizontalStack=0;resizeParent=1;resizeParentMax=0;resizeLast=0;collapsible=1;marginBottom=0;" parent="WIyWlLk6GJQsqaUBKTNV-1" vertex="1">
          <mxGeometry x="667" y="10" width="160" height="200" as="geometry" />
        </mxCell>
        <mxCell id="8-GeU_bBelWQcZoW2wFP-93" value="- hall: Hall" style="text;strokeColor=none;fillColor=none;align=left;verticalAlign=top;spacingLeft=4;spacingRight=4;overflow=hidden;rotatable=0;points=[[0,0.5],[1,0.5]];portConstraint=eastwest;" parent="8-GeU_bBelWQcZoW2wFP-92" vertex="1">
          <mxGeometry y="26" width="160" height="26" as="geometry" />
        </mxCell>
        <mxCell id="8-GeU_bBelWQcZoW2wFP-94" value="" style="line;strokeWidth=1;fillColor=none;align=left;verticalAlign=middle;spacingTop=-1;spacingLeft=3;spacingRight=3;rotatable=0;labelPosition=right;points=[];portConstraint=eastwest;strokeColor=inherit;" parent="8-GeU_bBelWQcZoW2wFP-92" vertex="1">
          <mxGeometry y="52" width="160" height="8" as="geometry" />
        </mxCell>
        <mxCell id="8-GeU_bBelWQcZoW2wFP-95" value="+ addExpense()&#xa;+ removeExpense()&#xa;+ createExpenseReport()&#xa;+ viewOccupancy()&#xa;+ viewComplaints()&#xa;+ createATR()&#xa;+ addStaff()&#xa;+ removeStaff()&#xa;+printStatement()" style="text;strokeColor=none;fillColor=none;align=left;verticalAlign=top;spacingLeft=4;spacingRight=4;overflow=hidden;rotatable=0;points=[[0,0.5],[1,0.5]];portConstraint=eastwest;" parent="8-GeU_bBelWQcZoW2wFP-92" vertex="1">
          <mxGeometry y="60" width="160" height="140" as="geometry" />
        </mxCell>
        <mxCell id="8-GeU_bBelWQcZoW2wFP-98" value="" style="endArrow=block;startArrow=block;endFill=1;startFill=1;html=1;rounded=0;startSize=14;endSize=14;exitX=1.001;exitY=0.11;exitDx=0;exitDy=0;exitPerimeter=0;" parent="WIyWlLk6GJQsqaUBKTNV-1" source="8-GeU_bBelWQcZoW2wFP-45" target="8-GeU_bBelWQcZoW2wFP-92" edge="1">
          <mxGeometry width="160" relative="1" as="geometry">
            <mxPoint x="-340" y="130" as="sourcePoint" />
            <mxPoint x="-80" y="460" as="targetPoint" />
            <Array as="points">
              <mxPoint x="490" y="-80" />
            </Array>
          </mxGeometry>
        </mxCell>
        <mxCell id="8-GeU_bBelWQcZoW2wFP-99" value="Extends" style="endArrow=block;endSize=16;endFill=0;html=1;rounded=0;entryX=1.003;entryY=0.298;entryDx=0;entryDy=0;entryPerimeter=0;" parent="WIyWlLk6GJQsqaUBKTNV-1" source="8-GeU_bBelWQcZoW2wFP-92" target="8-GeU_bBelWQcZoW2wFP-7" edge="1">
          <mxGeometry width="160" relative="1" as="geometry">
            <mxPoint x="230" y="-20" as="sourcePoint" />
            <mxPoint x="390" y="-20" as="targetPoint" />
          </mxGeometry>
        </mxCell>
        <mxCell id="8-GeU_bBelWQcZoW2wFP-100" value="HallBudget" style="swimlane;fontStyle=1;align=center;verticalAlign=top;childLayout=stackLayout;horizontal=1;startSize=26;horizontalStack=0;resizeParent=1;resizeParentMax=0;resizeLast=0;collapsible=1;marginBottom=0;" parent="WIyWlLk6GJQsqaUBKTNV-1" vertex="1">
          <mxGeometry x="-520" y="-219" width="160" height="140" as="geometry" />
        </mxCell>
        <mxCell id="8-GeU_bBelWQcZoW2wFP-101" value="- expenses: Expense [*]&#xa;- pettyexpenses: Expense[*]&#xa;- allocations: Allocation [*]" style="text;strokeColor=none;fillColor=none;align=left;verticalAlign=top;spacingLeft=4;spacingRight=4;overflow=hidden;rotatable=0;points=[[0,0.5],[1,0.5]];portConstraint=eastwest;" parent="8-GeU_bBelWQcZoW2wFP-100" vertex="1">
          <mxGeometry y="26" width="160" height="54" as="geometry" />
        </mxCell>
        <mxCell id="8-GeU_bBelWQcZoW2wFP-102" value="" style="line;strokeWidth=1;fillColor=none;align=left;verticalAlign=middle;spacingTop=-1;spacingLeft=3;spacingRight=3;rotatable=0;labelPosition=right;points=[];portConstraint=eastwest;strokeColor=inherit;" parent="8-GeU_bBelWQcZoW2wFP-100" vertex="1">
          <mxGeometry y="80" width="160" height="8" as="geometry" />
        </mxCell>
        <mxCell id="8-GeU_bBelWQcZoW2wFP-103" value="+ getTotal(): float&#xa;+ getpExpenses(): float&#xa;+ getAllocations(): float" style="text;strokeColor=none;fillColor=none;align=left;verticalAlign=top;spacingLeft=4;spacingRight=4;overflow=hidden;rotatable=0;points=[[0,0.5],[1,0.5]];portConstraint=eastwest;" parent="8-GeU_bBelWQcZoW2wFP-100" vertex="1">
          <mxGeometry y="88" width="160" height="52" as="geometry" />
        </mxCell>
        <mxCell id="8-GeU_bBelWQcZoW2wFP-108" value="Expense" style="swimlane;fontStyle=1;align=center;verticalAlign=top;childLayout=stackLayout;horizontal=1;startSize=26;horizontalStack=0;resizeParent=1;resizeParentMax=0;resizeLast=0;collapsible=1;marginBottom=0;" parent="WIyWlLk6GJQsqaUBKTNV-1" vertex="1">
          <mxGeometry x="-413" y="-450" width="160" height="94" as="geometry" />
        </mxCell>
        <mxCell id="8-GeU_bBelWQcZoW2wFP-109" value="- name: String&#xa;- cost: float" style="text;strokeColor=none;fillColor=none;align=left;verticalAlign=top;spacingLeft=4;spacingRight=4;overflow=hidden;rotatable=0;points=[[0,0.5],[1,0.5]];portConstraint=eastwest;" parent="8-GeU_bBelWQcZoW2wFP-108" vertex="1">
          <mxGeometry y="26" width="160" height="34" as="geometry" />
        </mxCell>
        <mxCell id="8-GeU_bBelWQcZoW2wFP-110" value="" style="line;strokeWidth=1;fillColor=none;align=left;verticalAlign=middle;spacingTop=-1;spacingLeft=3;spacingRight=3;rotatable=0;labelPosition=right;points=[];portConstraint=eastwest;strokeColor=inherit;" parent="8-GeU_bBelWQcZoW2wFP-108" vertex="1">
          <mxGeometry y="60" width="160" height="8" as="geometry" />
        </mxCell>
        <mxCell id="8-GeU_bBelWQcZoW2wFP-111" value="+ changeValue(float):" style="text;strokeColor=none;fillColor=none;align=left;verticalAlign=top;spacingLeft=4;spacingRight=4;overflow=hidden;rotatable=0;points=[[0,0.5],[1,0.5]];portConstraint=eastwest;" parent="8-GeU_bBelWQcZoW2wFP-108" vertex="1">
          <mxGeometry y="68" width="160" height="26" as="geometry" />
        </mxCell>
        <mxCell id="8-GeU_bBelWQcZoW2wFP-112" value="" style="endArrow=diamondThin;endFill=1;endSize=24;html=1;rounded=0;exitX=0.423;exitY=1;exitDx=0;exitDy=0;exitPerimeter=0;entryX=0.692;entryY=-0.014;entryDx=0;entryDy=0;entryPerimeter=0;" parent="WIyWlLk6GJQsqaUBKTNV-1" source="8-GeU_bBelWQcZoW2wFP-111" target="8-GeU_bBelWQcZoW2wFP-100" edge="1">
          <mxGeometry width="160" relative="1" as="geometry">
            <mxPoint x="-350" y="-240" as="sourcePoint" />
            <mxPoint x="200" y="-90" as="targetPoint" />
            <Array as="points">
              <mxPoint x="-345" y="-280" />
              <mxPoint x="-410" y="-280" />
            </Array>
          </mxGeometry>
        </mxCell>
        <mxCell id="8-GeU_bBelWQcZoW2wFP-113" value="" style="endArrow=diamondThin;endFill=1;endSize=24;html=1;rounded=0;" parent="WIyWlLk6GJQsqaUBKTNV-1" source="8-GeU_bBelWQcZoW2wFP-100" target="8-GeU_bBelWQcZoW2wFP-42" edge="1">
          <mxGeometry width="160" relative="1" as="geometry">
            <mxPoint x="40" y="-90" as="sourcePoint" />
            <mxPoint x="200" y="-90" as="targetPoint" />
          </mxGeometry>
        </mxCell>
        <mxCell id="8-GeU_bBelWQcZoW2wFP-117" value="HMCChairman" style="swimlane;fontStyle=1;align=center;verticalAlign=top;childLayout=stackLayout;horizontal=1;startSize=26;horizontalStack=0;resizeParent=1;resizeParentMax=0;resizeLast=0;collapsible=1;marginBottom=0;" parent="WIyWlLk6GJQsqaUBKTNV-1" vertex="1">
          <mxGeometry x="620" y="290" width="160" height="62" as="geometry" />
        </mxCell>
        <mxCell id="8-GeU_bBelWQcZoW2wFP-120" value="+ createAllocation() &#xa;+viewOccupancy()" style="text;strokeColor=none;fillColor=none;align=left;verticalAlign=top;spacingLeft=4;spacingRight=4;overflow=hidden;rotatable=0;points=[[0,0.5],[1,0.5]];portConstraint=eastwest;" parent="8-GeU_bBelWQcZoW2wFP-117" vertex="1">
          <mxGeometry y="26" width="160" height="36" as="geometry" />
        </mxCell>
        <mxCell id="8-GeU_bBelWQcZoW2wFP-121" value="Extends" style="endArrow=block;endSize=16;endFill=0;html=1;rounded=0;entryX=1.004;entryY=0.9;entryDx=0;entryDy=0;entryPerimeter=0;" parent="WIyWlLk6GJQsqaUBKTNV-1" source="8-GeU_bBelWQcZoW2wFP-117" target="8-GeU_bBelWQcZoW2wFP-7" edge="1">
          <mxGeometry width="160" relative="1" as="geometry">
            <mxPoint x="70" y="50" as="sourcePoint" />
            <mxPoint x="230" y="50" as="targetPoint" />
          </mxGeometry>
        </mxCell>
        <mxCell id="8-GeU_bBelWQcZoW2wFP-122" value="Allocation" style="swimlane;fontStyle=1;align=center;verticalAlign=top;childLayout=stackLayout;horizontal=1;startSize=26;horizontalStack=0;resizeParent=1;resizeParentMax=0;resizeLast=0;collapsible=1;marginBottom=0;" parent="WIyWlLk6GJQsqaUBKTNV-1" vertex="1">
          <mxGeometry x="-610" y="-450" width="160" height="94" as="geometry" />
        </mxCell>
        <mxCell id="8-GeU_bBelWQcZoW2wFP-123" value="- name: String&#xa;- allocatedGrant: float" style="text;strokeColor=none;fillColor=none;align=left;verticalAlign=top;spacingLeft=4;spacingRight=4;overflow=hidden;rotatable=0;points=[[0,0.5],[1,0.5]];portConstraint=eastwest;" parent="8-GeU_bBelWQcZoW2wFP-122" vertex="1">
          <mxGeometry y="26" width="160" height="34" as="geometry" />
        </mxCell>
        <mxCell id="8-GeU_bBelWQcZoW2wFP-124" value="" style="line;strokeWidth=1;fillColor=none;align=left;verticalAlign=middle;spacingTop=-1;spacingLeft=3;spacingRight=3;rotatable=0;labelPosition=right;points=[];portConstraint=eastwest;strokeColor=inherit;" parent="8-GeU_bBelWQcZoW2wFP-122" vertex="1">
          <mxGeometry y="60" width="160" height="8" as="geometry" />
        </mxCell>
        <mxCell id="8-GeU_bBelWQcZoW2wFP-125" value="+ changeValue(float)" style="text;strokeColor=none;fillColor=none;align=left;verticalAlign=top;spacingLeft=4;spacingRight=4;overflow=hidden;rotatable=0;points=[[0,0.5],[1,0.5]];portConstraint=eastwest;" parent="8-GeU_bBelWQcZoW2wFP-122" vertex="1">
          <mxGeometry y="68" width="160" height="26" as="geometry" />
        </mxCell>
        <mxCell id="8-GeU_bBelWQcZoW2wFP-126" value="" style="endArrow=diamondThin;endFill=1;endSize=24;html=1;rounded=0;entryX=0.25;entryY=0;entryDx=0;entryDy=0;exitX=0.421;exitY=1.077;exitDx=0;exitDy=0;exitPerimeter=0;" parent="WIyWlLk6GJQsqaUBKTNV-1" source="8-GeU_bBelWQcZoW2wFP-125" target="8-GeU_bBelWQcZoW2wFP-100" edge="1">
          <mxGeometry width="160" relative="1" as="geometry">
            <mxPoint x="-538" y="-355" as="sourcePoint" />
            <mxPoint x="-260" y="-120" as="targetPoint" />
            <Array as="points">
              <mxPoint x="-543" y="-280" />
              <mxPoint x="-480" y="-280" />
              <mxPoint x="-480" y="-230" />
            </Array>
          </mxGeometry>
        </mxCell>
        <mxCell id="8-GeU_bBelWQcZoW2wFP-127" value="" style="endArrow=block;endFill=1;html=1;edgeStyle=orthogonalEdgeStyle;align=left;verticalAlign=top;rounded=0;startSize=24;endSize=14;" parent="WIyWlLk6GJQsqaUBKTNV-1" source="8-GeU_bBelWQcZoW2wFP-4" target="8-GeU_bBelWQcZoW2wFP-0" edge="1">
          <mxGeometry x="-1" relative="1" as="geometry">
            <mxPoint x="652.5" y="370" as="sourcePoint" />
            <mxPoint x="277.5" y="473" as="targetPoint" />
            <Array as="points">
              <mxPoint x="430" y="-70" />
              <mxPoint x="260" y="-70" />
            </Array>
          </mxGeometry>
        </mxCell>
        <mxCell id="8-GeU_bBelWQcZoW2wFP-129" value="" style="endArrow=block;endFill=1;html=1;edgeStyle=orthogonalEdgeStyle;align=left;verticalAlign=top;rounded=0;startSize=24;endSize=14;" parent="WIyWlLk6GJQsqaUBKTNV-1" source="8-GeU_bBelWQcZoW2wFP-117" target="8-GeU_bBelWQcZoW2wFP-0" edge="1">
          <mxGeometry x="-1" relative="1" as="geometry">
            <mxPoint x="650" y="77" as="sourcePoint" />
            <mxPoint x="270" y="-170" as="targetPoint" />
            <Array as="points">
              <mxPoint x="690" y="220" />
              <mxPoint x="310" y="220" />
            </Array>
          </mxGeometry>
        </mxCell>
        <mxCell id="8-GeU_bBelWQcZoW2wFP-130" value="" style="endArrow=diamondThin;endFill=1;endSize=24;html=1;rounded=0;" parent="WIyWlLk6GJQsqaUBKTNV-1" source="8-GeU_bBelWQcZoW2wFP-85" target="8-GeU_bBelWQcZoW2wFP-42" edge="1">
          <mxGeometry width="160" relative="1" as="geometry">
            <mxPoint x="100" y="-90" as="sourcePoint" />
            <mxPoint x="260" y="-90" as="targetPoint" />
            <Array as="points">
              <mxPoint x="290" y="-330" />
            </Array>
          </mxGeometry>
        </mxCell>
        <mxCell id="8-GeU_bBelWQcZoW2wFP-131" value="" style="endArrow=diamondThin;endFill=1;endSize=24;html=1;rounded=0;exitX=0;exitY=0.295;exitDx=0;exitDy=0;exitPerimeter=0;" parent="WIyWlLk6GJQsqaUBKTNV-1" source="8-GeU_bBelWQcZoW2wFP-137" target="8-GeU_bBelWQcZoW2wFP-81" edge="1">
          <mxGeometry width="160" relative="1" as="geometry">
            <mxPoint x="760" y="-140" as="sourcePoint" />
            <mxPoint x="300" y="-50" as="targetPoint" />
          </mxGeometry>
        </mxCell>
        <mxCell id="8-GeU_bBelWQcZoW2wFP-136" value="ATR" style="swimlane;fontStyle=1;align=center;verticalAlign=top;childLayout=stackLayout;horizontal=1;startSize=26;horizontalStack=0;resizeParent=1;resizeParentMax=0;resizeLast=0;collapsible=1;marginBottom=0;" parent="WIyWlLk6GJQsqaUBKTNV-1" vertex="1">
          <mxGeometry x="730" y="-204" width="160" height="70" as="geometry" />
        </mxCell>
        <mxCell id="8-GeU_bBelWQcZoW2wFP-137" value="- name: String:&#xa;- details: String " style="text;strokeColor=none;fillColor=none;align=left;verticalAlign=top;spacingLeft=4;spacingRight=4;overflow=hidden;rotatable=0;points=[[0,0.5],[1,0.5]];portConstraint=eastwest;" parent="8-GeU_bBelWQcZoW2wFP-136" vertex="1">
          <mxGeometry y="26" width="160" height="44" as="geometry" />
        </mxCell>
        <mxCell id="8-GeU_bBelWQcZoW2wFP-144" value="HallEmployee" style="swimlane;fontStyle=1;align=center;verticalAlign=top;childLayout=stackLayout;horizontal=1;startSize=26;horizontalStack=0;resizeParent=1;resizeParentMax=0;resizeLast=0;collapsible=1;marginBottom=0;" parent="WIyWlLk6GJQsqaUBKTNV-1" vertex="1">
          <mxGeometry x="-381" y="66" width="160" height="124" as="geometry" />
        </mxCell>
        <mxCell id="8-GeU_bBelWQcZoW2wFP-145" value="- salary: int&#xa;- jobType: String&#xa;- leaves: Leave [*]&#xa;- isperday: boolean" style="text;strokeColor=none;fillColor=none;align=left;verticalAlign=top;spacingLeft=4;spacingRight=4;overflow=hidden;rotatable=0;points=[[0,0.5],[1,0.5]];portConstraint=eastwest;" parent="8-GeU_bBelWQcZoW2wFP-144" vertex="1">
          <mxGeometry y="26" width="160" height="64" as="geometry" />
        </mxCell>
        <mxCell id="8-GeU_bBelWQcZoW2wFP-146" value="" style="line;strokeWidth=1;fillColor=none;align=left;verticalAlign=middle;spacingTop=-1;spacingLeft=3;spacingRight=3;rotatable=0;labelPosition=right;points=[];portConstraint=eastwest;strokeColor=inherit;" parent="8-GeU_bBelWQcZoW2wFP-144" vertex="1">
          <mxGeometry y="90" width="160" height="8" as="geometry" />
        </mxCell>
        <mxCell id="8-GeU_bBelWQcZoW2wFP-147" value="+ changeSalary(int):" style="text;strokeColor=none;fillColor=none;align=left;verticalAlign=top;spacingLeft=4;spacingRight=4;overflow=hidden;rotatable=0;points=[[0,0.5],[1,0.5]];portConstraint=eastwest;" parent="8-GeU_bBelWQcZoW2wFP-144" vertex="1">
          <mxGeometry y="98" width="160" height="26" as="geometry" />
        </mxCell>
        <mxCell id="8-GeU_bBelWQcZoW2wFP-148" value="" style="endArrow=diamondThin;endFill=1;endSize=24;html=1;rounded=0;entryX=0.103;entryY=1.052;entryDx=0;entryDy=0;entryPerimeter=0;exitX=1;exitY=0.25;exitDx=0;exitDy=0;" parent="WIyWlLk6GJQsqaUBKTNV-1" source="8-GeU_bBelWQcZoW2wFP-144" target="8-GeU_bBelWQcZoW2wFP-45" edge="1">
          <mxGeometry width="160" relative="1" as="geometry">
            <mxPoint x="20" y="80" as="sourcePoint" />
            <mxPoint x="180" y="80" as="targetPoint" />
            <Array as="points">
              <mxPoint x="-194" y="97" />
            </Array>
          </mxGeometry>
        </mxCell>
        <mxCell id="8-GeU_bBelWQcZoW2wFP-149" value="Extends" style="endArrow=block;endSize=16;endFill=0;html=1;rounded=0;entryX=-0.001;entryY=0.384;entryDx=0;entryDy=0;entryPerimeter=0;" parent="WIyWlLk6GJQsqaUBKTNV-1" target="8-GeU_bBelWQcZoW2wFP-7" edge="1">
          <mxGeometry width="160" relative="1" as="geometry">
            <mxPoint x="-220" y="140" as="sourcePoint" />
            <mxPoint x="330" y="130" as="targetPoint" />
            <Array as="points">
              <mxPoint x="-190" y="140" />
              <mxPoint x="-190" y="450" />
              <mxPoint x="260" y="450" />
              <mxPoint x="260" y="120" />
            </Array>
          </mxGeometry>
        </mxCell>
        <mxCell id="8-GeU_bBelWQcZoW2wFP-154" value="HallClerk" style="swimlane;fontStyle=1;align=center;verticalAlign=top;childLayout=stackLayout;horizontal=1;startSize=26;horizontalStack=0;resizeParent=1;resizeParentMax=0;resizeLast=0;collapsible=1;marginBottom=0;" parent="WIyWlLk6GJQsqaUBKTNV-1" vertex="1">
          <mxGeometry x="-620" y="83" width="160" height="82" as="geometry" />
        </mxCell>
        <mxCell id="8-GeU_bBelWQcZoW2wFP-157" value="+ addLeave()&#xa;+ printSalaryList()&#xa;+ addExpense()" style="text;strokeColor=none;fillColor=none;align=left;verticalAlign=top;spacingLeft=4;spacingRight=4;overflow=hidden;rotatable=0;points=[[0,0.5],[1,0.5]];portConstraint=eastwest;" parent="8-GeU_bBelWQcZoW2wFP-154" vertex="1">
          <mxGeometry y="26" width="160" height="56" as="geometry" />
        </mxCell>
        <mxCell id="8-GeU_bBelWQcZoW2wFP-158" value="Extends" style="endArrow=block;endSize=16;endFill=0;html=1;rounded=0;" parent="WIyWlLk6GJQsqaUBKTNV-1" source="8-GeU_bBelWQcZoW2wFP-154" target="8-GeU_bBelWQcZoW2wFP-144" edge="1">
          <mxGeometry width="160" relative="1" as="geometry">
            <mxPoint x="-130" y="50" as="sourcePoint" />
            <mxPoint x="30" y="50" as="targetPoint" />
          </mxGeometry>
        </mxCell>
        <mxCell id="8-GeU_bBelWQcZoW2wFP-160" value="Leave" style="swimlane;fontStyle=1;align=center;verticalAlign=top;childLayout=stackLayout;horizontal=1;startSize=26;horizontalStack=0;resizeParent=1;resizeParentMax=0;resizeLast=0;collapsible=1;marginBottom=0;" parent="WIyWlLk6GJQsqaUBKTNV-1" vertex="1">
          <mxGeometry x="-381" y="290" width="160" height="80" as="geometry" />
        </mxCell>
        <mxCell id="8-GeU_bBelWQcZoW2wFP-161" value="- description: string&#xa;- startDate: String&#xa;- endDate: String&#xa;" style="text;strokeColor=none;fillColor=none;align=left;verticalAlign=top;spacingLeft=4;spacingRight=4;overflow=hidden;rotatable=0;points=[[0,0.5],[1,0.5]];portConstraint=eastwest;" parent="8-GeU_bBelWQcZoW2wFP-160" vertex="1">
          <mxGeometry y="26" width="160" height="54" as="geometry" />
        </mxCell>
        <mxCell id="8-GeU_bBelWQcZoW2wFP-164" value="" style="endArrow=diamondThin;endFill=1;endSize=24;html=1;rounded=0;" parent="WIyWlLk6GJQsqaUBKTNV-1" source="8-GeU_bBelWQcZoW2wFP-160" target="8-GeU_bBelWQcZoW2wFP-144" edge="1">
          <mxGeometry width="160" relative="1" as="geometry">
            <mxPoint x="-130" y="180" as="sourcePoint" />
            <mxPoint x="30" y="180" as="targetPoint" />
          </mxGeometry>
        </mxCell>
        <mxCell id="8-GeU_bBelWQcZoW2wFP-165" value="" style="endArrow=block;endFill=1;html=1;edgeStyle=orthogonalEdgeStyle;align=left;verticalAlign=top;rounded=0;startSize=24;endSize=14;" parent="WIyWlLk6GJQsqaUBKTNV-1" source="8-GeU_bBelWQcZoW2wFP-154" target="8-GeU_bBelWQcZoW2wFP-45" edge="1">
          <mxGeometry x="-1" relative="1" as="geometry">
            <mxPoint x="-540" y="60" as="sourcePoint" />
            <mxPoint x="-130" y="-30" as="targetPoint" />
          </mxGeometry>
        </mxCell>
        <mxCell id="LFmjO688uIZlgODtR9Ke-0" value="PettyExpense" style="swimlane;fontStyle=1;align=center;verticalAlign=top;childLayout=stackLayout;horizontal=1;startSize=26;horizontalStack=0;resizeParent=1;resizeParentMax=0;resizeLast=0;collapsible=1;marginBottom=0;" vertex="1" parent="WIyWlLk6GJQsqaUBKTNV-1">
          <mxGeometry x="-790" y="-450" width="160" height="94" as="geometry" />
        </mxCell>
        <mxCell id="LFmjO688uIZlgODtR9Ke-1" value="- name: String&#xa;- cost: float" style="text;strokeColor=none;fillColor=none;align=left;verticalAlign=top;spacingLeft=4;spacingRight=4;overflow=hidden;rotatable=0;points=[[0,0.5],[1,0.5]];portConstraint=eastwest;" vertex="1" parent="LFmjO688uIZlgODtR9Ke-0">
          <mxGeometry y="26" width="160" height="34" as="geometry" />
        </mxCell>
        <mxCell id="LFmjO688uIZlgODtR9Ke-2" value="" style="line;strokeWidth=1;fillColor=none;align=left;verticalAlign=middle;spacingTop=-1;spacingLeft=3;spacingRight=3;rotatable=0;labelPosition=right;points=[];portConstraint=eastwest;strokeColor=inherit;" vertex="1" parent="LFmjO688uIZlgODtR9Ke-0">
          <mxGeometry y="60" width="160" height="8" as="geometry" />
        </mxCell>
        <mxCell id="LFmjO688uIZlgODtR9Ke-3" value="+ changeValue(float):" style="text;strokeColor=none;fillColor=none;align=left;verticalAlign=top;spacingLeft=4;spacingRight=4;overflow=hidden;rotatable=0;points=[[0,0.5],[1,0.5]];portConstraint=eastwest;" vertex="1" parent="LFmjO688uIZlgODtR9Ke-0">
          <mxGeometry y="68" width="160" height="26" as="geometry" />
        </mxCell>
        <mxCell id="LFmjO688uIZlgODtR9Ke-4" value="" style="endArrow=diamondThin;endFill=1;endSize=24;html=1;rounded=0;exitX=0.423;exitY=1;exitDx=0;exitDy=0;exitPerimeter=0;entryX=0;entryY=0.064;entryDx=0;entryDy=0;entryPerimeter=0;edgeStyle=orthogonalEdgeStyle;" edge="1" parent="WIyWlLk6GJQsqaUBKTNV-1" source="LFmjO688uIZlgODtR9Ke-3" target="8-GeU_bBelWQcZoW2wFP-100">
          <mxGeometry width="160" relative="1" as="geometry">
            <mxPoint x="-727" y="-240" as="sourcePoint" />
            <mxPoint x="-786" y="-221" as="targetPoint" />
          </mxGeometry>
        </mxCell>
        <mxCell id="LFmjO688uIZlgODtR9Ke-5" value="" style="endArrow=block;endFill=1;html=1;edgeStyle=orthogonalEdgeStyle;align=left;verticalAlign=top;rounded=0;startSize=24;endSize=14;" edge="1" parent="WIyWlLk6GJQsqaUBKTNV-1" source="8-GeU_bBelWQcZoW2wFP-92" target="8-GeU_bBelWQcZoW2wFP-4">
          <mxGeometry x="-1" relative="1" as="geometry">
            <mxPoint x="720" y="10" as="sourcePoint" />
            <mxPoint x="260" y="-152" as="targetPoint" />
            <Array as="points">
              <mxPoint x="720" y="-70" />
              <mxPoint x="430" y="-70" />
            </Array>
          </mxGeometry>
        </mxCell>
        <mxCell id="8-GeU_bBelWQcZoW2wFP-4" value="Person" style="swimlane;fontStyle=3;align=center;verticalAlign=top;childLayout=stackLayout;horizontal=1;startSize=26;horizontalStack=0;resizeParent=1;resizeParentMax=0;resizeLast=0;collapsible=1;marginBottom=0;" parent="WIyWlLk6GJQsqaUBKTNV-1" vertex="1">
          <mxGeometry x="340" y="-44" width="180" height="226" as="geometry">
            <mxRectangle x="70" y="50" width="80" height="30" as="alternateBounds" />
          </mxGeometry>
        </mxCell>
        <mxCell id="8-GeU_bBelWQcZoW2wFP-5" value="- name: String&#xa;- address: String&#xa;- telephoneNumber: int&#xa;- photograph: Photograph&#xa;- username: String&#xa;- password: String" style="text;strokeColor=none;fillColor=none;align=left;verticalAlign=top;spacingLeft=4;spacingRight=4;overflow=hidden;rotatable=0;points=[[0,0.5],[1,0.5]];portConstraint=eastwest;" parent="8-GeU_bBelWQcZoW2wFP-4" vertex="1">
          <mxGeometry y="26" width="180" height="90" as="geometry" />
        </mxCell>
        <mxCell id="8-GeU_bBelWQcZoW2wFP-6" value="" style="line;strokeWidth=1;fillColor=none;align=left;verticalAlign=middle;spacingTop=-1;spacingLeft=3;spacingRight=3;rotatable=0;labelPosition=right;points=[];portConstraint=eastwest;strokeColor=inherit;" parent="8-GeU_bBelWQcZoW2wFP-4" vertex="1">
          <mxGeometry y="116" width="180" height="8" as="geometry" />
        </mxCell>
        <mxCell id="8-GeU_bBelWQcZoW2wFP-7" value="+ getName(): String&#xa;+ getAddress(): String&#xa;+ getNumber(): int&#xa;+ getPhotograph(): Photograph&#xa;+ setNumber(int)&#xa;+ setPhotograph(Photograph)" style="text;strokeColor=none;fillColor=none;align=left;verticalAlign=top;spacingLeft=4;spacingRight=4;overflow=hidden;rotatable=0;points=[[0,0.5],[1,0.5]];portConstraint=eastwest;" parent="8-GeU_bBelWQcZoW2wFP-4" vertex="1">
          <mxGeometry y="124" width="180" height="102" as="geometry" />
        </mxCell>
      </root>
    </mxGraphModel>
  </diagram>
</mxfile>
